<svg xmlns="http://www.w3.org/2000/svg" width="400" height="400" viewBox="0 0 400 400">
<rect width="400" height="400" fill="#F5F5F5"/>
<rect x="40" y="120" width="320" height="160" rx="10" fill="#1B7A1B"/>
<rect x="55" y="135" width="135" height="130" rx="6" fill="#155015"/>
<rect x="210" y="135" width="135" height="130" rx="6" fill="#155015"/>
<g fill="white">
<rect x="107" y="155" width="14" height="38" rx="4"/>
<ellipse cx="114" cy="155" rx="12" ry="10"/>
<rect x="100" y="193" width="28" height="46" rx="5"/>
<line x1="114" y1="151" x2="114" y2="145" stroke="white" stroke-width="5"/>
<rect x="108" y="140" width="12" height="8" rx="2"/>
<line x1="128" y1="170" x2="145" y2="175" stroke="white" stroke-width="4" stroke-linecap="round"/>
</g>
<g fill="white">
<path d="M242,160 Q242,150 265,150 L288,150 Q305,150 305,165 L305,195 Q305,210 288,210 L280,210 L268,225 L268,210 L265,210 Q242,210 242,195 Z"/>
<path d="M258,172 Q260,165 272,165 Q284,165 286,172" fill="none" stroke="#1B7A1B" stroke-width="4"/>
<circle cx="272" cy="183" r="4" fill="#1B7A1B"/>
<rect x="268" y="188" width="8" height="10" rx="2" fill="#1B7A1B"/>
</g>
</svg>
