<svg xmlns="http://www.w3.org/2000/svg" viewBox="0 0 400 400" width="400" height="400">
  <rect width="400" height="400" fill="#F5F5F5"/>
  <circle cx="200" cy="200" r="145" fill="white" stroke="#CC0000" stroke-width="17"/>
  <path d="M200,160 Q220,140 210,120 Q230,135 225,155 Q240,135 235,110 Q260,140 250,165 Q265,148 260,175 Q255,200 230,215 Q240,195 225,210 Q210,225 195,210 Q175,220 165,200 Q150,180 160,160 Q155,135 175,140 Q170,160 185,150 Q190,135 200,160 Z" fill="#CC4400"/>
  <line x1="122" y1="122" x2="278" y2="278" stroke="#CC0000" stroke-width="17" stroke-linecap="round"/>
</svg>