<svg xmlns="http://www.w3.org/2000/svg" viewBox="0 0 400 400" width="400" height="400">
  <rect width="400" height="400" fill="#D0E8D0"/>
  <!-- Car driving with door open (incorrect) -->
  <!-- Road -->
  <rect x="0" y="260" width="400" height="80" fill="#888888"/>
  <line x1="0" y1="260" x2="400" y2="260" stroke="white" stroke-width="3"/>
  <line x1="0" y1="340" x2="400" y2="340" stroke="white" stroke-width="3"/>
  <line x1="0" y1="300" x2="400" y2="300" stroke="white" stroke-width="2" stroke-dasharray="20,15"/>
  <!-- Car body (side view, moving right) -->
  <!-- Main body -->
  <rect x="90" y="210" width="200" height="70" rx="10" fill="#CC3333"/>
  <!-- Roof -->
  <rect x="130" y="175" width="130" height="50" rx="12" fill="#BB2222"/>
  <!-- Windshield -->
  <polygon points="130,225 165,175 190,175 190,225" fill="#AADDFF" opacity="0.85"/>
  <!-- Rear window -->
  <polygon points="230,225 255,175 260,175 260,225" fill="#AADDFF" opacity="0.85"/>
  <!-- Car front -->
  <rect x="270" y="225" width="20" height="35" rx="4" fill="#AA2222"/>
  <!-- Headlight -->
  <rect x="282" y="232" width="12" height="10" rx="3" fill="#FFFFAA"/>
  <!-- Wheel arches -->
  <rect x="90" y="255" width="60" height="25" rx="4" fill="#AA2222"/>
  <rect x="240" y="255" width="60" height="25" rx="4" fill="#AA2222"/>
  <!-- Wheels -->
  <circle cx="130" cy="282" r="24" fill="#333"/>
  <circle cx="130" cy="282" r="15" fill="#555"/>
  <circle cx="130" cy="282" r="6" fill="#888"/>
  <circle cx="270" cy="282" r="24" fill="#333"/>
  <circle cx="270" cy="282" r="15" fill="#555"/>
  <circle cx="270" cy="282" r="6" fill="#888"/>
  <!-- OPEN DRIVER DOOR (swung wide open) -->
  <!-- Door panel -->
  <rect x="142" y="195" width="18" height="65" rx="3" fill="#DD4444" stroke="#AA1111" stroke-width="2"/>
  <!-- Door hinge at top -->
  <circle cx="160" cy="200" r="4" fill="#888"/>
  <!-- Door swings outward (open at angle) -->
  <g transform="rotate(-70, 160, 200)">
    <rect x="142" y="195" width="18" height="65" rx="3" fill="#EE5555" stroke="#CC2222" stroke-width="2"/>
    <!-- Door handle -->
    <rect x="148" y="230" width="8" height="4" rx="2" fill="#AA1111"/>
  </g>
  <!-- Speed lines (car is moving) -->
  <line x1="30" y1="225" x2="75" y2="225" stroke="#666" stroke-width="2" opacity="0.5"/>
  <line x1="20" y1="240" x2="70" y2="240" stroke="#666" stroke-width="2" opacity="0.5"/>
  <line x1="35" y1="255" x2="78" y2="255" stroke="#666" stroke-width="2" opacity="0.5"/>
  <!-- Warning / prohibition sign -->
  <circle cx="330" cy="100" r="38" fill="white" stroke="#CC0000" stroke-width="6"/>
  <line x1="303" y1="73" x2="357" y2="127" stroke="#CC0000" stroke-width="8" stroke-linecap="round"/>
  <!-- Door icon inside circle -->
  <rect x="313" y="80" width="15" height="40" rx="2" fill="#333" opacity="0.5"/>
  <line x1="316" y1="100" x2="304" y2="100" stroke="#333" stroke-width="3" stroke-linecap="round"/>
  <!-- Incorrect X -->
  <circle cx="60" cy="115" r="22" fill="#FF3333"/>
  <line x1="46" y1="101" x2="74" y2="129" stroke="white" stroke-width="5" stroke-linecap="round"/>
  <line x1="74" y1="101" x2="46" y2="129" stroke="white" stroke-width="5" stroke-linecap="round"/>
  <!-- Caption -->
  <text x="200" y="360" text-anchor="middle" font-family="Arial,sans-serif" font-size="13" fill="#333333">Vehículo circulando con puerta abierta</text>
  <text x="200" y="378" text-anchor="middle" font-family="Arial,sans-serif" font-weight="bold" font-size="13" fill="#CC0000">Circulación incorrecta</text>
</svg>
